<?xml version="1.0" encoding="UTF-8" standalone="no"?>
<svg
   xmlns:dc="http://purl.org/dc/elements/1.1/"
   xmlns:cc="http://creativecommons.org/ns#"
   xmlns:rdf="http://www.w3.org/1999/02/22-rdf-syntax-ns#"
   xmlns:svg="http://www.w3.org/2000/svg"
   xmlns="http://www.w3.org/2000/svg"
   version="1.1"
   id="svg20951"
   viewBox="0 0 500.00001 140.18653"
   height="140.18654"
   width="500">
  <defs
     id="defs20953" />
  <metadata
     id="metadata20956">
    <rdf:RDF>
      <cc:Work
         rdf:about="">
        <dc:format>image/svg+xml</dc:format>
        <dc:type
           rdf:resource="http://purl.org/dc/dcmitype/StillImage" />
        <dc:title></dc:title>
      </cc:Work>
    </rdf:RDF>
  </metadata>
  <g
     transform="translate(-4.24e-7,-912.17565)"
     id="layer1">
    <g
       style="fill:#000000;fill-opacity:1"
       transform="matrix(4.691118,0,0,-4.691118,10.001464,964.31041)"
       id="g14979">
      <path
         id="path14981"
         style="fill:#000000;fill-opacity:1;fill-rule:nonzero;stroke:none"
         d="m 0,0 -2.132,0 0,4.361 2.294,0 0,4.782 5.427,0 0,-4.782 3.489,0 0,-4.361 -3.489,0 0,-5.104 c 0,-1.874 1.906,-2.133 2.972,-2.133 0.453,0 0.743,0.033 0.743,0.033 l 0,-4.846 c 0,0 -0.614,-0.097 -1.518,-0.097 -2.649,0 -7.786,0.71 -7.786,6.3 L 0,0 Z" />
    </g>
    <g
       style="fill:#000000;fill-opacity:1"
       transform="matrix(4.691118,0,0,-4.691118,100.48045,940.66811)"
       id="g14983">
      <path
         id="path14985"
         style="fill:#000000;fill-opacity:1;fill-rule:nonzero;stroke:none"
         d="m 0,0 c 5.266,0 9.466,-3.522 9.466,-8.755 0,-5.201 -4.2,-8.658 -9.434,-8.658 -5.233,0 -9.433,3.457 -9.433,8.658 C -9.401,-3.522 -5.201,0 0,0 m 0.032,-12.761 c 2.036,0 3.78,1.518 3.78,4.006 0,2.52 -1.744,4.103 -3.78,4.103 -2.035,0 -3.779,-1.583 -3.779,-4.103 0,-2.488 1.744,-4.006 3.779,-4.006" />
    </g>
    <g
       style="fill:#000000;fill-opacity:1"
       transform="matrix(4.691118,0,0,-4.691118,151.04087,942.48684)"
       id="g14987">
      <path
         id="path14989"
         style="fill:#000000;fill-opacity:1;fill-rule:nonzero;stroke:none"
         d="m 0,0 5.589,0 0,-9.757 c 0,-1.55 0.614,-2.196 1.777,-2.196 2.39,0 3.521,2.099 3.521,4.587 l 0,7.366 5.589,0 0,-16.638 -5.363,0 0,1.454 c 0,0.549 0.065,1.034 0.065,1.034 l -0.065,0 C 10.209,-15.927 8.141,-17.025 5.912,-17.025 2.617,-17.025 0,-15.475 0,-10.79 L 0,0 Z" />
    </g>
    <g
       style="fill:#000000;fill-opacity:1"
       transform="matrix(4.691118,0,0,-4.691118,239.39995,942.48684)"
       id="g14991">
      <path
         id="path14993"
         style="fill:#000000;fill-opacity:1;fill-rule:nonzero;stroke:none"
         d="m 0,0 5.363,0 0,-2.811 c 0,-0.549 -0.065,-1.033 -0.065,-1.033 l 0.065,0 c 0.711,2.261 2.81,4.135 5.298,4.135 0.323,0 0.646,-0.065 0.646,-0.065 l 0,-5.492 c 0,0 -0.452,0.097 -1.13,0.097 -1.325,0 -3.49,-0.42 -4.297,-2.907 -0.194,-0.615 -0.291,-1.358 -0.291,-2.262 l 0,-6.3 -5.589,0 L 0,0 Z" />
    </g>
    <path
       id="path14995"
       style="fill:#000000;fill-opacity:1;fill-rule:nonzero;stroke:none"
       d="m 296.84036,942.48496 26.21866,0 0,78.05084 -26.21866,0 0,-78.05084 z m 0.30511,-30.30931 25.61351,0 0,20.45796 -25.61351,0 0,-20.45796 z" />
    <g
       style="fill:#000000;fill-opacity:1"
       transform="matrix(4.691118,0,0,-4.691118,334.12255,942.48684)"
       id="g14997">
      <path
         id="path14999"
         style="fill:#000000;fill-opacity:1;fill-rule:nonzero;stroke:none"
         d="m 0,0 5.363,0 0,-1.454 c 0,-0.549 -0.065,-1.034 -0.065,-1.034 l 0.065,0 c 0.775,1.293 2.358,2.876 5.298,2.876 3.36,0 5.977,-1.551 5.977,-6.235 l 0,-10.791 -5.589,0 0,9.757 c 0,1.55 -0.614,2.196 -1.842,2.196 -1.744,0 -2.81,-0.969 -3.295,-2.39 C 5.686,-7.721 5.589,-8.464 5.589,-9.272 l 0,-7.366 -5.589,0 L 0,0 Z" />
    </g>
    <g
       style="fill:#000000;fill-opacity:1"
       transform="matrix(4.691118,0,0,-4.691118,455.74399,1030.5391)"
       id="g15001">
      <path
         id="path15003"
         style="fill:#000000;fill-opacity:1;fill-rule:nonzero;stroke:none"
         d="m 0,0 c 2.003,0 3.845,0.743 3.845,3.198 l 0,0.55 c 0,0.193 0.032,0.613 0.032,0.613 l -0.065,0 C 2.843,3.198 1.583,2.617 -0.355,2.617 c -5.008,0 -7.495,4.103 -7.495,8.367 0,4.232 2.423,8.174 7.462,8.174 3.038,0 4.523,-1.616 4.523,-1.616 l 0.097,0 c 0,0 -0.032,0.194 -0.032,0.388 l 0,0.84 5.234,0 0,-15.119 c 0,-6.074 -4.846,-8.303 -9.402,-8.303 -2.229,0 -4.684,0.646 -6.299,1.486 l 1.583,4.232 C -4.684,1.066 -2.617,0 0,0 m 3.974,10.919 c 0,2.94 -1.551,3.587 -3.23,3.587 -1.971,0 -2.973,-1.422 -2.973,-3.328 0,-2.068 0.969,-3.909 3.198,-3.909 1.454,0 3.005,0.743 3.005,3.65" />
    </g>
  </g>
</svg>
